<svg width="401" height="200" viewBox="0 0 401 200" fill="none" xmlns="http://www.w3.org/2000/svg">
<path d="M388.294 173.754C388.294 174.602 387.606 175.291 386.758 175.291H385.903C383.402 175.291 381.484 174.825 380.149 173.894C378.813 172.962 378.144 171.622 378.144 169.875C378.144 168.127 378.813 166.788 380.149 165.855C381.484 164.924 383.402 164.458 385.903 164.458H386.758C387.606 164.458 388.294 165.147 388.294 165.995V173.756V173.754ZM363.757 199.578H375.415C375.911 199.578 376.375 199.339 376.664 198.936L385.508 186.582C386.378 185.366 388.294 185.982 388.294 187.476V198.041C388.294 198.89 388.983 199.578 389.831 199.578H399.428C400.277 199.578 400.965 198.89 400.965 198.041V157.199C400.965 156.351 400.277 155.662 399.428 155.662H381.248C378.532 155.662 376.162 156.031 374.136 156.769C372.11 157.468 370.45 158.438 369.158 159.681C367.821 160.923 366.831 162.36 366.184 163.991C365.494 165.622 365.15 167.369 365.15 169.234C365.15 172.574 366.055 175.291 367.865 177.387C369.23 178.977 371.108 180.172 373.5 180.973C374.531 181.319 374.886 182.598 374.182 183.426L362.587 197.045C361.738 198.043 362.448 199.578 363.757 199.578Z" fill="#FAFAF8"/>
<path d="M274.494 188.374C274.494 189.222 275.183 189.911 276.031 189.911H277.404C279.602 189.911 281.563 189.6 283.287 188.979C285.012 188.358 286.455 187.504 287.618 186.417C288.825 185.331 289.73 184.049 290.334 182.573C290.981 181.059 291.304 179.409 291.304 177.623C291.304 175.837 290.981 174.244 290.334 172.73C289.687 171.216 288.76 169.915 287.554 168.828C286.39 167.741 284.947 166.887 283.223 166.266C281.498 165.645 279.56 165.334 277.405 165.334H276.033C275.185 165.334 274.496 166.023 274.496 166.871V188.377L274.494 188.374ZM261.822 157.199C261.822 156.351 262.511 155.662 263.359 155.662H280.572C283.89 155.662 286.994 156.265 289.882 157.468C292.812 158.672 295.355 160.284 297.51 162.302C299.708 164.282 301.433 166.612 302.682 169.291C303.932 171.931 304.557 174.707 304.557 177.619C304.557 180.532 303.932 183.269 302.682 185.948C301.476 188.589 299.773 190.919 297.575 192.937C295.418 194.957 292.876 196.567 289.945 197.771C287.059 198.974 283.933 199.577 280.572 199.577H263.359C262.511 199.577 261.822 198.888 261.822 198.04V157.198V157.199Z" fill="#FAFAF8"/>
<path d="M203.158 198.041V157.199C203.158 156.351 203.847 155.662 204.695 155.662H215.131C215.575 155.662 215.998 155.854 216.29 156.189L236.538 179.421C237.471 180.492 239.234 179.831 239.234 178.411V157.199C239.234 156.351 239.922 155.662 240.77 155.662H250.303C251.151 155.662 251.84 156.351 251.84 157.199V198.041C251.84 198.89 251.151 199.578 250.303 199.578H239.933C239.489 199.578 239.066 199.386 238.774 199.051L218.526 175.82C217.593 174.748 215.83 175.409 215.83 176.829V198.041C215.83 198.89 215.142 199.578 214.293 199.578H204.697C203.848 199.578 203.16 198.89 203.16 198.041H203.158Z" fill="#FAFAF8"/>
<path d="M193.154 157.199V198.041C193.154 198.89 192.465 199.578 191.617 199.578H182.02C181.172 199.578 180.483 198.89 180.483 198.041V157.199C180.483 156.351 181.172 155.662 182.02 155.662H191.617C192.465 155.662 193.154 156.351 193.154 157.199Z" fill="#FAFAF8"/>
<path d="M109.977 156.763L116.733 179.564C117.154 180.984 119.143 181.045 119.65 179.654L128.031 156.673C128.252 156.066 128.829 155.664 129.474 155.664H137.41C138.055 155.664 138.633 156.068 138.853 156.673L147.234 179.654C147.741 181.047 149.73 180.985 150.151 179.564L156.907 156.763C157.101 156.109 157.7 155.662 158.381 155.662H168.359C169.407 155.662 170.148 156.687 169.818 157.682L156.29 198.524C156.081 199.153 155.493 199.578 154.831 199.578H144.075C143.434 199.578 142.863 199.182 142.637 198.582L134.881 177.953C134.382 176.625 132.504 176.625 132.004 177.953L124.249 198.582C124.023 199.182 123.451 199.578 122.81 199.578H112.053C111.391 199.578 110.802 199.154 110.594 198.524L97.0662 157.682C96.7373 156.687 97.4781 155.662 98.5248 155.662H108.503C109.184 155.662 109.783 156.109 109.977 156.763Z" fill="#FAFAF8"/>
<path d="M12.6731 173.754C12.6731 174.602 13.3617 175.291 14.2101 175.291H15.0646C17.5637 175.291 19.4818 174.825 20.819 173.894C22.1546 172.962 22.8232 171.622 22.8232 169.875C22.8232 168.127 22.1546 166.788 20.819 165.855C19.4834 164.924 17.5653 164.458 15.0646 164.458H14.2101C13.3617 164.458 12.6731 165.147 12.6731 165.995V173.756V173.754ZM37.2106 199.578H25.5528C25.0564 199.578 24.5922 199.339 24.3033 198.936L15.4596 186.582C14.5897 185.366 12.6731 185.982 12.6731 187.476V198.041C12.6731 198.89 11.9846 199.578 11.1362 199.578H1.53793C0.689531 199.578 0.000976562 198.89 0.000976562 198.041V157.199C0.000976562 156.351 0.689531 155.662 1.53793 155.662H19.7201C22.4359 155.662 24.8058 156.031 26.8315 156.769C28.8572 157.468 30.5171 158.438 31.8097 159.681C33.1453 160.923 34.1367 162.36 34.7837 163.991C35.4738 165.622 35.8181 167.369 35.8181 169.234C35.8181 172.574 34.9128 175.291 33.1023 177.387C31.7375 178.977 29.8593 180.172 27.4678 180.973C26.4365 181.319 26.0815 182.598 26.7854 183.426L38.3802 197.045C39.2301 198.043 38.5201 199.578 37.2106 199.578Z" fill="#FAFAF8"/>
<path d="M84.8779 155.662H52.0702C51.2213 155.662 50.5332 156.35 50.5332 157.199V163.764C50.5332 164.612 51.2213 165.301 52.0702 165.301H84.8779C85.7268 165.301 86.4149 164.612 86.4149 163.764V157.199C86.4149 156.35 85.7268 155.662 84.8779 155.662Z" fill="#FAFAF8"/>
<path d="M84.8779 172.58H52.0702C51.2213 172.58 50.5332 173.268 50.5332 174.117V180.682C50.5332 181.53 51.2213 182.219 52.0702 182.219H84.8779C85.7268 182.219 86.4149 181.53 86.4149 180.682V174.117C86.4149 173.268 85.7268 172.58 84.8779 172.58Z" fill="#FAFAF8"/>
<path d="M84.8779 189.939H52.0702C51.2213 189.939 50.5332 190.628 50.5332 191.476V198.041C50.5332 198.89 51.2213 199.578 52.0702 199.578H84.8779C85.7268 199.578 86.4149 198.89 86.4149 198.041V191.476C86.4149 190.628 85.7268 189.939 84.8779 189.939Z" fill="#FAFAF8"/>
<path d="M348.894 155.662H316.086C315.237 155.662 314.549 156.35 314.549 157.199V163.764C314.549 164.612 315.237 165.301 316.086 165.301H348.894C349.742 165.301 350.431 164.612 350.431 163.764V157.199C350.431 156.35 349.742 155.662 348.894 155.662Z" fill="#FAFAF8"/>
<path d="M348.894 172.58H316.086C315.237 172.58 314.549 173.268 314.549 174.117V180.682C314.549 181.53 315.237 182.219 316.086 182.219H348.894C349.742 182.219 350.431 181.53 350.431 180.682V174.117C350.431 173.268 349.742 172.58 348.894 172.58Z" fill="#FAFAF8"/>
<path d="M348.894 189.939H316.086C315.237 189.939 314.549 190.628 314.549 191.476V198.041C314.549 198.89 315.237 199.578 316.086 199.578H348.894C349.742 199.578 350.431 198.89 350.431 198.041V191.476C350.431 190.628 349.742 189.939 348.894 189.939Z" fill="#FAFAF8"/>
<path d="M398.659 143.615H2.30585C1.03165 143.615 0 142.584 0 141.314V2.30262C0 1.03217 1.03165 0.00109162 2.30585 0.00109162H398.659C399.931 0.00109162 400.964 1.03217 400.964 2.30262V141.314C400.964 142.584 399.933 143.615 398.659 143.615ZM190.044 13.0769C190.044 11.3707 188.249 10.2583 186.717 11.0132L122.901 42.4843V18.9212C122.901 17.215 121.106 16.1026 119.574 16.8575L27.5735 62.23V11.0868C27.5735 9.81636 26.5418 8.78528 25.2676 8.78528H10.4546C9.18195 8.78528 8.14877 9.81636 8.14877 11.0868V133.119C8.14877 134.389 9.18041 135.42 10.4546 135.42H25.2676C26.5403 135.42 27.5735 134.389 27.5735 133.119V81.3879L119.574 126.759C121.106 127.514 122.901 126.401 122.901 124.695V101.132L186.717 132.603C188.249 133.358 190.044 132.246 190.044 130.539V13.0769ZM391.36 10.7922C391.36 9.52176 390.329 8.49068 389.054 8.49068H374.241C372.969 8.49068 371.936 9.52176 371.936 10.7922V61.9353L279.935 16.5645C278.403 15.8096 276.608 16.922 276.608 18.6282V42.1913L212.792 10.7201C211.26 9.96519 209.465 11.0776 209.465 12.7838V130.246C209.465 131.953 211.26 133.065 212.792 132.31L276.608 100.839V124.4C276.608 126.107 278.403 127.219 279.935 126.464L371.936 81.0933V132.824C371.936 134.095 372.967 135.126 374.241 135.126H389.054C390.327 135.126 391.36 134.095 391.36 132.824V10.7922Z" fill="#FAFAF8"/>
</svg>
